<svg id="Capa_1" enable-background="new 0 0 512.005 512.005" height="512" viewBox="0 0 512.005 512.005" width="512" xmlns="http://www.w3.org/2000/svg"><g><g><path d="m439.592 290.655c-4.366-3.381-10.647-2.585-14.029 1.782-11.384 14.695-28.558 23.124-47.118 23.124-5.522 0-10 4.477-10 10s4.478 10 10 10c7.454 0 14.738-1.025 21.697-2.981 2.013 5.187 3.082 10.727 3.082 16.358 0 24.909-20.266 45.174-45.175 45.174-4.385 0-8.652-.613-12.757-1.821.718-3.374 1.103-6.87 1.103-10.455 0-8.991-3.339-21.467-10.8-29.072-3.866-3.942-10.199-4.003-14.142-.136s-4.003 10.199-.136 14.142c2.752 2.806 5.077 9.705 5.077 15.066 0 16.65-13.546 30.196-30.196 30.196s-30.196-13.546-30.196-30.196v-107.719c4.3 1.954 9.071 3.052 14.098 3.052 5.522 0 10-4.477 10-10s-4.478-10-10-10c-7.773 0-14.098-6.267-14.098-13.971v-112.777c0-16.789 13.658-30.447 30.447-30.447 11.476 0 21.929 6.472 27.105 16.613-8.863 4.242-16.615 10.758-22.337 19.117-3.12 4.557-1.955 10.781 2.602 13.901 4.556 3.119 10.781 1.955 13.9-2.602 6.854-10.011 18.177-15.988 30.288-15.988 20.222 0 36.673 16.451 36.673 36.672 0 3.049-.377 6.031-1.101 8.926-1.702-.108-3.413-.167-5.134-.167-5.522 0-10 4.477-10 10s4.478 10 10 10c18.548 0 35.714 8.418 47.097 23.097 1.971 2.542 4.924 3.872 7.909 3.872 2.142 0 4.299-.685 6.121-2.098 4.364-3.385 5.159-9.667 1.774-14.031-9.942-12.82-23.191-22.061-38.099-26.922.944-4.126 1.433-8.36 1.433-12.676 0-31.249-25.423-56.672-56.673-56.672-1.638 0-3.261.096-4.876.235l-.55-1.242c-8.073-18.245-26.181-30.034-46.132-30.034-16.538 0-31.241 8-40.447 20.332-9.206-12.332-23.909-20.332-40.447-20.332-19.951 0-38.059 11.789-46.132 30.034l-.55 1.242c-1.615-.139-3.238-.235-4.876-.235-31.25 0-56.673 25.423-56.673 56.672 0 4.335.495 8.588 1.448 12.733-31.764 10.444-54.77 40.369-54.77 75.583 0 29.251 15.88 54.849 39.461 68.671-3.076 7.674-4.682 15.907-4.682 24.263 0 35.937 29.237 65.174 65.174 65.174 7.186 0 14.153-1.163 20.818-3.417 9.094 12.892 24.091 21.337 41.033 21.337 16.425 0 31.033-7.931 40.196-20.163 9.163 12.233 23.771 20.163 40.196 20.163 16.942 0 31.938-8.445 41.033-21.337 6.666 2.254 13.632 3.417 20.818 3.417 35.938 0 65.175-29.237 65.175-65.174 0-8.328-1.595-16.534-4.651-24.186 8.672-5.074 16.42-11.829 22.8-20.066 3.383-4.368 2.585-10.649-1.781-14.031zm-193.59-47.457c0 7.704-6.21 13.971-13.843 13.971-5.523 0-10 4.477-10 10s4.477 10 10 10c4.931 0 9.614-1.073 13.843-2.984v107.65c0 16.65-13.546 30.196-30.196 30.196s-30.196-13.546-30.196-30.196c0-5.362 2.325-12.261 5.077-15.066 3.868-3.943 3.807-10.274-.136-14.142s-10.275-3.808-14.142.136c-7.46 7.605-10.799 20.081-10.799 29.072 0 3.585.385 7.081 1.103 10.455-4.106 1.208-8.372 1.821-12.758 1.821-24.909 0-45.174-20.265-45.174-45.174 0-5.648 1.075-11.204 3.1-16.404 6.897 1.957 14.163 3.027 21.679 3.027 5.523 0 10-4.477 10-10s-4.477-10-10-10c-32.84 0-59.558-26.717-59.558-59.558s26.717-59.558 59.558-59.558c5.523 0 10-4.477 10-10s-4.477-10-10-10c-1.725 0-3.432.074-5.13.183-.727-2.9-1.105-5.888-1.105-8.942 0-20.221 16.451-36.672 36.673-36.672 12.111 0 23.434 5.977 30.287 15.988 3.12 4.557 9.345 5.721 13.9 2.602 4.558-3.12 5.723-9.343 2.603-13.901-5.723-8.359-13.475-14.875-22.338-19.117 5.176-10.14 15.629-16.612 27.105-16.612 16.789 0 30.447 13.659 30.447 30.447z"/><path d="m362.075 243.198c0-5.523-4.478-10-10-10s-10 4.477-10 10c0 19.635 15.974 35.608 35.607 35.608 5.522 0 10-4.477 10-10s-4.478-10-10-10c-8.606.001-15.607-7.001-15.607-15.608z"/><path d="m187.472 303.358c-5.523 0-10 4.477-10 10s4.477 10 10 10c5.194 0 10.034 2.575 12.948 6.888 1.932 2.861 5.085 4.403 8.295 4.403 1.926 0 3.873-.556 5.588-1.715 4.577-3.091 5.78-9.308 2.688-13.884-6.637-9.825-17.672-15.692-29.519-15.692z"/><path d="m295.266 319.05c-3.092 4.576-1.889 10.792 2.688 13.884 1.716 1.16 3.663 1.715 5.59 1.715 3.21 0 6.362-1.542 8.295-4.402 2.914-4.313 7.755-6.889 12.948-6.889 5.522 0 10-4.477 10-10s-4.478-10-10-10c-11.846 0-22.881 5.866-29.521 15.692z"/><path d="m159.931 233.198c-5.523 0-10 4.477-10 10 0 8.606-7.001 15.608-15.608 15.608-5.523 0-10 4.477-10 10s4.477 10 10 10c19.634 0 35.608-15.974 35.608-35.608 0-5.523-4.477-10-10-10z"/><path d="m327.269 176.445c-5.522 0-10 4.477-10 10 0 7.704-6.268 13.971-13.971 13.971-5.522 0-10 4.477-10 10s4.478 10 10 10c18.731 0 33.971-15.239 33.971-33.971 0-5.523-4.477-10-10-10z"/><path d="m208.706 220.415c5.523 0 10-4.477 10-10s-4.477-10-10-10c-7.703 0-13.97-6.267-13.97-13.971 0-5.523-4.477-10-10-10s-10 4.477-10 10c0 18.732 15.239 33.971 33.97 33.971z"/><path d="m364.674 92.144c1.84 1.463 4.036 2.174 6.218 2.174 2.943 0 5.859-1.293 7.833-3.776l29.951-37.66c2.23-2.805 2.79-6.588 1.467-9.918s-4.328-5.697-7.875-6.205l-10.127-1.451 17.232-18.487c3.766-4.04 3.543-10.368-.497-14.133-4.038-3.765-10.366-3.543-14.134.497l-30.284 32.49c-2.539 2.724-3.354 6.633-2.115 10.145s4.326 6.044 8.013 6.572l11.812 1.692-19.095 24.01c-3.439 4.322-2.721 10.612 1.601 14.05z"/><path d="m119.864 35.308-10.126 1.451c-3.547.508-6.551 2.875-7.875 6.205-1.323 3.33-.764 7.114 1.466 9.918l29.951 37.66c1.975 2.482 4.89 3.776 7.833 3.776 2.182 0 4.378-.71 6.218-2.174 4.322-3.438 5.04-9.729 1.602-14.051l-19.095-24.01 11.811-1.692c3.686-.528 6.774-3.061 8.013-6.572s.423-7.421-2.116-10.145l-30.284-32.49c-3.767-4.041-10.094-4.261-14.133-.497-4.04 3.766-4.262 10.093-.497 14.133z"/><path d="m445.305 166.856c1.678 0 3.378-.423 4.939-1.312l41.814-23.809c3.113-1.773 5.041-5.077 5.052-8.66s-1.896-6.898-5-8.69l-8.966-5.177 23.157-11.03c4.986-2.375 7.104-8.342 4.729-13.329s-8.344-7.101-13.328-4.728l-40.329 19.209c-3.354 1.597-5.546 4.921-5.692 8.633s1.775 7.199 4.992 9.056l10.333 5.966-26.658 15.179c-4.799 2.732-6.475 8.838-3.742 13.638 1.844 3.238 5.223 5.054 8.699 5.054z"/><path d="m5.702 108.179 23.158 11.03-8.966 5.177c-3.104 1.792-5.011 5.107-5 8.69s1.938 6.887 5.052 8.66l41.815 23.809c1.562.89 3.261 1.312 4.938 1.312 3.477 0 6.856-1.816 8.699-5.054 2.733-4.8 1.058-10.906-3.742-13.638l-26.659-15.179 10.333-5.966c3.217-1.857 5.139-5.344 4.992-9.056s-2.339-7.036-5.692-8.633l-40.327-19.209c-4.987-2.374-10.954-.259-13.329 4.728-2.375 4.986-.258 10.954 4.728 13.329z"/><path d="m381.717 484.421 3.117-.446c3.547-.508 6.552-2.875 7.875-6.205s.764-7.114-1.466-9.918l-22.604-28.423c-3.438-4.322-9.729-5.041-14.052-1.602-4.322 3.438-5.04 9.729-1.603 14.051l11.749 14.773-4.68.67c-3.677.527-6.759 3.048-8.004 6.547-1.244 3.5-.447 7.401 2.071 10.131l22.856 24.783c1.971 2.138 4.658 3.221 7.354 3.221 2.424 0 4.854-.876 6.776-2.649 4.061-3.744 4.316-10.071.571-14.131z"/><path d="m506.302 385.351-16.782-7.994 4.945-2.855c3.104-1.792 5.011-5.106 5-8.69s-1.938-6.887-5.052-8.66l-35.205-20.045c-4.8-2.732-10.905-1.057-13.639 3.742-2.732 4.8-1.057 10.906 3.742 13.638l20.049 11.416-6.312 3.645c-3.217 1.857-5.139 5.344-4.992 9.055s2.339 7.036 5.692 8.633l33.954 16.173c1.388.661 2.852.974 4.293.974 3.736 0 7.321-2.104 9.035-5.702 2.376-4.988.259-10.955-4.728-13.33z"/><path d="m52.797 337.106-35.205 20.045c-3.114 1.773-5.041 5.077-5.052 8.66s1.897 6.898 5 8.69l4.945 2.855-16.783 7.994c-4.986 2.375-7.103 8.342-4.728 13.329 1.714 3.598 5.298 5.702 9.035 5.702 1.441 0 2.906-.313 4.293-.974l33.954-16.173c3.354-1.597 5.545-4.922 5.692-8.633s-1.775-7.199-4.992-9.056l-6.312-3.645 20.049-11.416c4.799-2.732 6.475-8.838 3.742-13.638-2.733-4.798-8.839-6.472-13.638-3.74z"/><path d="m157.418 437.826c-4.324-3.438-10.614-2.721-14.051 1.602l-22.605 28.423c-2.23 2.805-2.79 6.588-1.466 9.918s4.328 5.697 7.875 6.205l3.117.447-9.962 10.802c-3.744 4.06-3.488 10.386.572 14.13 1.922 1.773 4.353 2.649 6.777 2.649 2.695 0 5.382-1.083 7.354-3.221l22.856-24.783c2.518-2.73 3.315-6.631 2.07-10.131s-4.327-6.021-8.003-6.547l-4.68-.67 11.749-14.773c3.437-4.323 2.719-10.614-1.603-14.051z"/><circle cx="448.002" cy="256.002" r="10"/></g></g></svg>