<svg id="&#x421;&#x43B;&#x43E;&#x439;_1" viewBox="0 0 128 128" xmlns="http://www.w3.org/2000/svg"><path d="m110 128h-92a18 18 0 0 1 -18-18v-92a18 18 0 0 1 18-18h92a18 18 0 0 1 18 18v92a18 18 0 0 1 -18 18zm-92-124a14 14 0 0 0 -14 14v92a14 14 0 0 0 14 14h92a14 14 0 0 0 14-14v-92a14 14 0 0 0 -14-14z"/><path d="m104.23 28.84a54.65 54.65 0 0 0 -80.46 0 2 2 0 0 0 -.07 2.63l16 19.33a2 2 0 1 0 3.08-2.54l-14.83-18a50.8 50.8 0 0 1 34.05-15.03v4.77a2 2 0 0 0 4 0v-4.77a50.8 50.8 0 0 1 34.08 15.06l-14.93 18.09a2 2 0 1 0 3.08 2.55l16.07-19.46a2 2 0 0 0 -.07-2.63z"/><path d="m72.61 47.72-6.8-14.57a2 2 0 0 0 -3.62 0l-6.8 14.57a26 26 0 0 0 -10.39 6.78 2 2 0 0 0 2.92 2.74 22.08 22.08 0 0 1 32.2 0 2 2 0 0 0 2.88-2.74 26 26 0 0 0 -10.39-6.78zm-12.25-1.2 3.64-7.79 3.64 7.79a26.62 26.62 0 0 0 -7.28 0z"/></svg>